<?xml version="1.0" encoding="UTF-8"?>
<svg width="300px" height="297px" viewBox="0 0 300 297" version="1.1" xmlns="http://www.w3.org/2000/svg" xmlns:xlink="http://www.w3.org/1999/xlink">
    <title>Badge</title>
    <g id="Wireframe" stroke="none" stroke-width="1" fill="none" fill-rule="evenodd">
        <g id="Desktop-Essentials" transform="translate(-220.000000, -205.000000)">
            <g id="Badge" transform="translate(220.000000, 200.000000)">
                <g id="Badge-Copy-11" transform="translate(0.000000, 0.297880)">
                    <path d="M170.703089,9.39477294 L268.428978,52.9061143 C287.146178,61.2397347 299.205109,79.8090294 299.205109,100.297631 L299.205109,206.203182 C299.205109,226.691784 287.146178,245.261078 268.428978,253.594699 L170.703089,297.10604 C157.271644,303.086238 141.933465,303.086238 128.50202,297.10604 L30.7761311,253.594699 C12.0589314,245.261078 -1.17017247e-14,226.691784 0,206.203182 L0,100.297631 C6.58963686e-15,79.8090294 12.0589314,61.2397347 30.7761311,52.9061143 L128.50202,9.39477294 C141.933465,3.41457492 157.271644,3.41457492 170.703089,9.39477294 Z" id="Polygon-Copy-4" fill="#202020"></path>
                    <path d="M133.395733,26.3105262 C143.682822,21.7457216 155.420885,21.7457216 165.707974,26.3105262 L165.707974,26.3105262 L261.026686,68.6073595 C267.217496,71.3544769 272.308303,75.7965112 275.851408,81.2450026 C279.394513,86.6934939 281.389915,93.1484423 281.389915,99.9213878 L281.389915,99.9213878 L281.389915,206.674638 C281.389915,213.447583 279.394513,219.902532 275.851408,225.351023 C272.308303,230.799515 267.217496,235.241549 261.026686,237.988666 L261.026686,237.988666 L165.707974,280.2855 C155.420885,284.850304 143.682822,284.850304 133.395733,280.2855 L133.395733,280.2855 L38.0770216,237.988666 C31.8862109,235.241549 26.7954036,230.799515 23.2522991,225.351023 C19.7091945,219.902532 17.7137926,213.447583 17.7137926,206.674638 L17.7137926,206.674638 L17.7137926,99.9213878 C17.7137926,93.1484423 19.7091945,86.6934939 23.2522991,81.2450026 C26.7954036,75.7965112 31.8862109,71.3544769 38.0770216,68.6073595 L38.0770216,68.6073595 Z" id="Polygon-Copy-5" stroke="#FF684F" stroke-width="12.0912535" opacity="0.499209"></path>
                    <path d="M130.936697,14.8630249 C142.81836,9.5728497 156.386749,9.5728497 168.268412,14.8630249 L168.268412,14.8630249 L265.994301,58.3743662 C274.273062,62.0603906 281.079322,68.0100738 285.815892,75.3038173 C290.552461,82.5975609 293.21934,91.2353649 293.21934,100.297631 L293.21934,100.297631 L293.21934,206.203182 C293.21934,215.265448 290.552461,223.903252 285.815892,231.196996 C281.079322,238.490739 274.273062,244.440422 265.994301,248.126447 L265.994301,248.126447 L168.268412,291.637788 C156.386749,296.927963 142.81836,296.927963 130.936697,291.637788 L130.936697,291.637788 L33.2108081,248.126447 C24.9320467,244.440422 18.1257869,238.490739 13.3892175,231.196996 C8.65264812,223.903252 5.98576906,215.265448 5.98576906,206.203182 L5.98576906,206.203182 L5.98576906,100.297631 C5.98576906,91.2353649 8.65264812,82.5975609 13.3892175,75.3038173 C18.1257869,68.0100738 24.9320467,62.0603906 33.2108081,58.3743662 L33.2108081,58.3743662 Z" id="Polygon-Copy" stroke="#FF684F" stroke-width="11.9715381"></path>
                    <text id="VICTORY" font-family="Castledown-Bold, Castledown" font-size="25.9383326" font-weight="bold" line-spacing="19.9525635" letter-spacing="1.92135702" fill="#FF684F">
                        <tspan x="88.7664645" y="235.876611">VICTORY</tspan>
                    </text>
                </g>
                <g id="Group" transform="translate(89.526894, 76.646924)">
                    <polygon id="Rectangle-Copy-62" fill="#FF684F" points="21.8112136 3.1318625 32.7727465 3.1318625 61.8543646 109.458692 50.8928316 109.458692"></polygon>
                    <polygon id="Rectangle-Copy-63" fill="#EE4A2F" transform="translate(76.283321, 76.871714) scale(-1, 1) translate(-76.283321, -76.871714) " points="61.8543646 44.2847368 72.8901668 44.2847368 90.7122779 109.458692 79.7546455 109.458692"></polygon>
                    <polygon id="Rectangle-Copy-64" fill="#FF684F" transform="translate(98.403801, 36.153737) scale(-1, 1) translate(-98.403801, -36.153737) " points="86.4093048 12.3531273 97.332291 12.3531273 110.398296 59.9543462 99.5203839 59.9543462"></polygon>
                    <path d="M10.8496806,3.1318625 L21.8112136,3.1318625 L50.8928316,109.458692 C44.4200518,109.458692 38.7470692,105.128968 37.0394109,98.8855092 L10.8496806,3.1318625 L10.8496806,3.1318625 Z" id="Rectangle-Copy-65" fill="#EE4A2F"></path>
                    <path d="M32.7727465,3.1318625 C39.2455263,3.1318625 44.918509,7.46158598 46.6261673,13.7050451 L72.8158976,109.458692 L72.8158976,109.458692 L61.8543646,109.458692 L32.7727465,3.1318625 Z" id="Rectangle-Copy-66" fill="#FF9877"></path>
                    <polygon id="Rectangle-Copy-67" fill="#FF684F" transform="translate(17.672676, 7.836589) rotate(-270.000000) translate(-17.672676, -7.836589) " points="13.0620432 3.65299212 22.283308 1.12544682 22.283308 12.0323838 13.0620432 14.5477321"></polygon>
                    <path d="M2.10051021,3.65299212 L11.3217751,1.12544682 L11.3217751,2.47420917 C11.3217751,8.11748596 7.54487086,13.0626361 2.10051021,14.5477321 L2.10051021,14.5477321 L2.10051021,14.5477321 L2.10051021,3.65299212 Z" id="Rectangle-Copy-68" fill="#FF684F" transform="translate(6.711143, 7.836589) rotate(-270.000000) translate(-6.711143, -7.836589) "></path>
                    <path d="M88.4036552,25.1575443 C88.8779226,30.6146754 93.6834795,34.6558848 99.1410873,34.187135 L115.486152,32.7832697 L115.486152,32.7832697 L116.905979,15.8460679 C117.365646,10.3626812 113.293116,5.5448847 107.809729,5.0852183 C107.8065,5.0849476 107.803271,5.08467847 107.800041,5.08441092 L107.800041,5.08441092 L107.800041,5.08441092 L106.245796,23.6250963 L88.4036552,25.1575443 Z" id="Rectangle-Copy-8" fill="#FF684F" fill-rule="nonzero" transform="translate(102.672120, 19.654660) rotate(-120.000000) translate(-102.672120, -19.654660) "></path>
                </g>
            </g>
        </g>
    </g>
</svg>